<?xml version="1.0" standalone="no"?>
<!DOCTYPE svg PUBLIC "-//W3C//DTD SVG 20010904//EN"
 "http://www.w3.org/TR/2001/REC-SVG-20010904/DTD/svg10.dtd">
<svg version="1.0" xmlns="http://www.w3.org/2000/svg"
 width="1024.000000pt" height="1024.000000pt" viewBox="0 0 1024.000000 1024.000000"
 preserveAspectRatio="xMidYMid meet">

<g transform="translate(0.000000,1024.000000) scale(0.100000,-0.100000)"
fill="#000000" stroke="none">
<path d="M5015 8990 c-390 -27 -802 -172 -1206 -425 -185 -116 -437 -347 -585
-535 -177 -225 -325 -511 -425 -818 -29 -89 -32 -104 -19 -113 13 -9 12 -10
-2 -5 -10 3 -18 3 -18 1 0 -3 -12 -44 -26 -92 -14 -49 -33 -117 -40 -152 -8
-36 -18 -69 -23 -75 -15 -18 -41 -234 -41 -342 0 -119 -2 -117 127 -160 69
-23 89 -26 183 -22 91 4 122 10 230 47 218 73 517 246 749 431 58 46 152 117
210 158 59 41 142 103 186 138 86 69 322 243 565 419 84 61 198 144 254 185
311 230 651 426 929 535 145 57 390 121 521 136 141 16 401 6 489 -19 77 -22
90 -10 35 31 -81 59 -276 110 -419 109 -115 -1 -181 -12 -359 -63 -289 -82
-519 -180 -755 -322 -233 -139 -295 -179 -508 -331 -71 -50 -147 -104 -170
-120 -48 -34 -815 -610 -957 -719 -158 -122 -349 -249 -361 -241 -7 4 -9 3 -6
-4 7 -10 -86 -68 -200 -125 -37 -19 -53 -23 -56 -14 -3 7 -6 6 -6 -4 -1 -9 -7
-19 -15 -22 -22 -9 -13 16 18 53 22 27 30 31 38 19 8 -11 9 -10 4 4 -19 55
-19 53 -4 36 12 -15 18 -10 57 52 46 72 57 84 45 47 -6 -20 -4 -20 16 5 15 19
21 36 17 55 -5 25 -4 26 10 7 13 -18 14 -17 8 20 -4 22 -3 35 2 29 4 -6 17 -8
27 -4 17 6 18 7 3 13 -27 10 -20 28 8 21 14 -3 25 -2 24 2 -1 5 -1 25 0 44 1
26 4 31 11 20 5 -8 7 -26 5 -40 -3 -14 -2 -18 1 -10 4 8 14 21 23 28 12 10 13
15 3 21 -10 6 -10 13 3 37 8 16 15 36 15 44 1 19 39 89 40 73 0 -7 4 -13 10
-13 6 0 6 9 0 26 -9 24 -8 26 10 21 13 -3 20 0 20 9 0 8 -4 14 -10 14 -5 0
-10 10 -10 23 0 16 3 18 9 8 7 -10 10 -10 16 -1 4 7 1 16 -6 21 -10 6 -8 9 9
9 14 0 26 8 31 23 11 27 121 121 361 305 52 40 120 93 150 118 30 25 133 104
229 177 96 73 215 163 265 201 100 76 391 270 501 333 180 104 395 202 586
267 162 54 274 80 440 101 68 9 132 18 142 21 30 9 14 27 -49 54 -53 23 -72
25 -194 25 -115 0 -151 -4 -241 -28 -293 -76 -769 -312 -1154 -574 -147 -100
-573 -418 -674 -502 -65 -56 -275 -217 -568 -439 -191 -145 -321 -231 -463
-309 -74 -41 -235 -104 -252 -100 -10 3 -16 2 -13 -3 3 -4 -5 -10 -18 -14 -32
-8 -34 -8 -34 9 0 8 3 15 7 15 8 0 35 147 31 173 -1 9 2 17 7 17 13 0 26 46
27 90 0 22 4 34 13 32 6 -1 12 5 12 13 0 8 -8 15 -17 15 -16 1 -16 2 -2 10 19
11 14 60 -7 60 -34 0 6 35 95 80 102 53 358 237 544 392 439 365 909 724 1167
890 118 75 342 195 455 243 40 17 337 115 348 115 3 0 18 5 34 12 l28 11 -30
7 c-39 10 -318 9 -460 0z m-2308 -2184 c-3 -8 -1 -17 6 -20 7 -2 4 -5 -5 -5
-10 -1 -18 1 -18 3 0 10 13 36 17 36 3 0 3 -6 0 -14z m768 -96 c3 -5 -1 -10
-10 -10 -9 0 -13 5 -10 10 3 6 8 10 10 10 2 0 7 -4 10 -10z m-205 -259 c0 -5
-7 -11 -14 -14 -10 -4 -13 -1 -9 9 6 15 23 19 23 5z m-50 -20 c0 -8 -54 -32
-69 -31 -4 1 46 30 67 39 1 1 2 -3 2 -8z"/>
<path d="M6925 7743 c-16 -2 -93 -17 -170 -34 -357 -78 -805 -310 -1305 -678
-58 -43 -132 -97 -166 -122 -143 -103 -285 -210 -403 -304 -69 -54 -155 -120
-191 -144 -36 -25 -119 -86 -186 -136 -378 -282 -698 -474 -960 -575 -78 -30
-119 -35 -49 -6 20 9 46 26 57 38 14 17 18 18 14 6 -3 -12 -1 -15 10 -11 7 3
14 12 14 19 0 8 13 17 30 20 29 6 120 81 120 99 0 6 9 16 20 23 11 7 20 22 20
33 0 12 10 31 23 42 15 13 18 21 10 24 -15 5 -17 43 -3 43 20 0 8 26 -23 50
l-31 25 17 -25 c23 -32 22 -50 -3 -50 -19 0 -24 10 -21 38 1 6 -5 12 -14 12
-8 0 -15 7 -15 15 0 8 -4 15 -10 15 -5 0 -10 -7 -10 -15 0 -8 -5 -15 -11 -15
-6 0 -9 6 -6 13 7 19 -26 67 -46 67 -17 0 -19 5 -13 33 3 17 3 27 -2 21 -14
-22 -281 -136 -450 -193 -93 -32 -188 -44 -282 -38 -90 7 -201 36 -235 61 -11
9 -23 16 -26 16 -7 0 41 -176 65 -235 8 -22 22 -70 30 -107 18 -76 100 -308
123 -347 46 -74 67 -101 106 -128 125 -89 373 -133 578 -103 97 14 317 84 440
140 179 82 485 275 691 436 41 32 120 92 174 131 146 107 154 115 137 132 -12
11 -14 10 -11 -5 2 -16 -4 -19 -39 -21 l-43 -2 0 120 c0 78 4 118 10 114 6 -3
10 -1 10 5 0 6 5 8 10 5 6 -4 10 10 10 34 0 23 5 41 10 41 6 0 10 9 10 20 0
11 6 20 14 20 8 0 17 7 20 16 5 13 9 14 20 5 11 -10 16 -8 21 8 3 12 11 21 16
21 5 0 9 8 9 17 0 9 12 30 27 45 15 15 22 28 15 28 -6 0 -15 -8 -21 -17 -5
-10 -13 -15 -17 -11 -9 10 15 38 32 38 8 0 14 6 14 13 0 8 4 7 10 -3 6 -9 10
-10 10 -3 0 6 -7 19 -16 28 -15 15 -14 15 10 9 17 -4 26 -2 26 6 0 6 -4 8 -10
5 -5 -3 -10 -2 -10 4 0 11 402 335 519 419 358 255 587 386 861 495 140 56
191 71 335 98 159 29 181 31 340 27 158 -5 177 -7 270 -38 62 -20 113 -44 133
-61 40 -36 66 -39 57 -6 -22 72 -45 107 -92 136 -56 36 -202 86 -294 101 -61
9 -249 11 -314 3z m-2002 -1367 c-3 -16 -10 -23 -19 -19 -19 7 -18 20 4 32 9
6 18 11 18 11 1 0 -1 -11 -3 -24z m-1316 -152 c-3 -3 -12 -4 -19 -1 -8 3 -5 6
6 6 11 1 17 -2 13 -5z"/>
<path d="M7145 7259 c-121 -15 -303 -58 -400 -94 -157 -58 -452 -205 -412
-205 17 0 149 46 262 91 283 113 649 166 860 124 98 -19 203 -54 278 -92 27
-13 50 -23 52 -21 2 2 1 16 -2 31 -4 19 -17 33 -42 46 -53 27 -249 99 -301
110 -62 14 -223 19 -295 10z"/>
<path d="M7279 6535 c-174 -28 -381 -100 -583 -201 -241 -122 -471 -275 -945
-628 -188 -141 -334 -246 -324 -233 9 13 32 35 50 48 30 22 48 49 22 33 -8 -5
-8 -1 0 14 6 11 16 22 23 24 9 3 8 11 -5 31 -19 30 -23 117 -7 148 8 14 7 19
-1 19 -7 0 -9 10 -5 28 5 20 4 23 -4 12 -8 -13 -10 -13 -10 3 0 9 -5 17 -10
17 -7 0 -7 6 -1 18 6 11 9 30 8 43 -3 29 -29 89 -39 89 -16 0 -7 29 10 34 11
4 30 18 43 33 24 25 23 25 -16 -3 -49 -36 -220 -163 -470 -349 -464 -347 -699
-495 -975 -615 -351 -153 -704 -192 -901 -99 -34 16 -64 27 -67 24 -33 -32
329 -432 523 -578 143 -108 293 -205 400 -258 115 -58 122 -60 174 -54 80 10
149 30 300 87 203 76 282 115 452 224 180 115 266 176 527 373 106 80 242 182
301 226 60 44 209 157 332 250 123 94 237 178 252 188 15 10 25 22 22 27 -3 5
0 12 6 16 8 4 9 3 5 -4 -4 -7 -3 -12 2 -12 6 0 12 7 16 15 3 8 12 15 20 15 8
0 18 5 22 12 5 8 0 9 -14 6 -12 -4 -22 -2 -22 3 0 5 -5 9 -11 9 -8 0 -8 -5 1
-15 10 -13 9 -15 -9 -15 -17 0 -21 6 -21 30 0 23 -4 30 -20 30 -19 0 -20 1 -4
24 18 29 19 36 6 45 -15 10 -26 71 -12 71 22 0 42 31 42 65 0 19 4 35 9 35 5
0 9 9 9 20 0 16 -7 20 -35 20 -25 0 -35 4 -35 16 0 8 -4 12 -10 9 -5 -3 -10
-4 -10 -1 0 10 187 135 312 210 290 173 467 239 718 271 112 15 150 16 235 6
161 -18 268 -54 329 -110 l29 -26 -7 64 c-3 35 -6 81 -6 101 l0 37 -122 44
c-122 43 -124 44 -268 46 -86 1 -180 -4 -231 -12z"/>
<path d="M3825 6389 c-4 -6 -5 -12 -2 -15 2 -3 7 2 10 11 7 17 1 20 -8 4z"/>
<path d="M3712 6322 c-22 -17 -21 -32 1 -32 6 0 7 3 4 7 -4 3 0 15 10 25 20
23 15 23 -15 0z"/>
<path d="M5040 6070 c0 -5 5 -10 11 -10 5 0 7 5 4 10 -3 6 -8 10 -11 10 -2 0
-4 -4 -4 -10z"/>
<path d="M7680 6061 c-42 -6 -40 -7 35 -14 116 -11 147 -22 210 -73 31 -25 58
-44 60 -42 9 9 -58 110 -78 117 -31 12 -173 19 -227 12z"/>
<path d="M8658 5927 c-56 -47 -64 -109 -20 -157 47 -53 122 -38 158 31 47 92
-61 191 -138 126z"/>
<path d="M6330 5925 c-11 -13 -10 -14 4 -9 9 3 16 10 16 15 0 13 -6 11 -20 -6z"/>
<path d="M7382 5779 c-88 -19 -168 -45 -264 -85 -90 -38 -346 -181 -423 -237
-38 -28 -113 -81 -165 -117 -133 -92 -361 -262 -450 -335 -41 -34 -131 -104
-200 -155 -69 -51 -145 -110 -170 -130 -125 -103 -389 -294 -535 -387 -185
-118 -458 -258 -570 -293 -22 -7 -58 -22 -80 -33 l-40 -20 30 -8 c261 -62 354
-77 578 -89 267 -14 538 13 839 84 348 83 760 295 1038 536 115 99 309 315
383 425 123 183 115 170 217 345 93 159 102 178 154 330 34 99 43 137 34 147
-36 44 -231 55 -376 22z"/>
<path d="M6350 5713 c0 -5 5 -15 10 -23 8 -12 10 -11 10 8 0 12 -4 22 -10 22
-5 0 -10 -3 -10 -7z"/>
<path d="M6441 5587 c-1 -21 21 -18 27 4 3 12 2 12 -6 0 -8 -11 -10 -11 -15 0
-4 10 -6 8 -6 -4z"/>
<path d="M7522 3449 c-178 -21 -337 -126 -431 -282 -46 -78 -61 -128 -68 -221
-10 -154 51 -313 155 -406 59 -53 174 -107 285 -136 152 -38 276 -86 318 -122
69 -59 86 -129 50 -209 -73 -160 -409 -124 -629 69 -19 16 -37 28 -42 26 -7
-3 -79 -98 -177 -232 -18 -25 -33 -50 -33 -55 0 -14 89 -80 181 -134 185 -109
429 -153 624 -112 108 22 240 92 306 162 62 65 135 183 156 252 17 57 19 210
2 276 -19 78 -66 163 -120 217 -66 66 -190 124 -394 183 -249 72 -298 109
-297 222 1 96 54 145 164 151 115 7 244 -33 354 -109 26 -17 49 -27 53 -22 3
5 31 47 62 94 31 46 80 106 108 133 51 47 52 49 35 68 -27 28 -150 102 -222
132 -123 52 -295 73 -440 55z"/>
<path d="M2460 2545 l0 -905 185 0 185 0 -2 570 c-2 314 -1 570 2 570 3 -1 21
-23 40 -49 113 -157 593 -713 795 -921 146 -150 155 -156 233 -164 37 -4 85
-10 107 -13 l40 -5 0 909 0 910 -187 -1 -188 -1 -2 -547 -3 -548 -70 81 c-38
44 -101 117 -139 162 -38 45 -97 114 -131 152 -34 39 -108 126 -164 194 -56
68 -181 211 -278 318 l-176 193 -123 0 -124 0 0 -905z"/>
<path d="M4438 3157 c-1 -161 -3 -317 -5 -347 -1 -30 1 -306 4 -613 l6 -559
356 4 c354 4 356 4 445 31 195 60 346 145 431 243 122 141 179 237 217 371 20
69 23 100 22 258 0 167 -2 186 -28 270 -93 303 -295 495 -621 590 -107 31
-143 33 -527 39 l-298 5 -2 -292z m587 -82 c265 -13 415 -109 500 -320 23 -57
29 -90 33 -178 6 -131 -8 -208 -54 -305 -47 -98 -119 -169 -226 -222 -73 -36
-95 -42 -188 -50 -58 -5 -144 -9 -192 -10 l-88 0 0 550 0 550 58 -5 c31 -2
102 -7 157 -10z"/>
<path d="M6602 3260 c0 -14 2 -19 5 -12 2 6 2 18 0 25 -3 6 -5 1 -5 -13z"/>
<path d="M6250 3191 c0 -41 3 -51 21 -56 11 -4 23 -4 26 -1 3 3 15 0 27 -6 18
-9 19 -9 10 3 -6 8 -28 36 -48 62 l-36 49 0 -51z"/>
<path d="M6515 3139 c-36 -27 -46 -30 -103 -27 -40 2 -62 -1 -62 -8 0 -7 22
-10 59 -9 59 3 112 25 141 60 18 22 10 18 -35 -16z"/>
<path d="M6236 3070 c-2 -3 -4 -326 -5 -717 l-2 -713 193 0 193 0 4 719 3 719
-192 -2 c-105 0 -193 -3 -194 -6z"/>
</g>
</svg>
