<?xml version="1.0" standalone="no"?>
<!DOCTYPE svg PUBLIC "-//W3C//DTD SVG 20010904//EN"
 "http://www.w3.org/TR/2001/REC-SVG-20010904/DTD/svg10.dtd">
<svg version="1.0" xmlns="http://www.w3.org/2000/svg"
 width="500.000000pt" height="500.000000pt" viewBox="0 0 500.000000 500.000000"
 preserveAspectRatio="xMidYMid meet">

<g transform="translate(0.000000,500.000000) scale(0.100000,-0.100000)"
fill="#000000" stroke="none">
<path d="M2400 4380 c-180 -20 -409 -111 -578 -230 -92 -64 -214 -185 -276
-272 -92 -131 -186 -345 -199 -458 -1 -8 -5 -17 -8 -20 -6 -5 -25 -69 -39
-135 -5 -22 -9 -70 -10 -107 l0 -68 36 -15 c53 -22 156 -19 228 6 67 24 193
89 241 124 16 12 154 114 305 226 467 348 558 411 701 486 90 48 212 96 299
119 70 19 300 26 354 11 57 -16 9 20 -57 42 -88 30 -180 28 -308 -8 -208 -59
-376 -148 -654 -346 -125 -89 -325 -236 -365 -268 -8 -7 -31 -23 -50 -37 -19
-13 -37 -27 -40 -30 -24 -29 -235 -172 -310 -210 -45 -23 -50 -24 -50 -10 0 6
6 10 13 10 13 0 64 76 84 125 6 17 12 24 12 16 1 -11 7 -9 22 7 11 12 17 26
14 31 -3 5 4 16 16 24 15 11 17 16 7 20 -10 4 -7 11 8 25 16 13 19 23 12 35
-7 13 -5 15 6 11 7 -3 17 0 22 7 5 8 3 10 -7 4 -48 -28 248 213 447 365 301
228 558 351 787 375 37 4 69 11 72 15 10 16 -63 35 -130 34 -121 -2 -321 -81
-550 -219 -122 -74 -255 -169 -479 -344 -227 -177 -334 -256 -410 -302 -77
-46 -185 -93 -194 -84 -11 11 -10 35 1 35 7 0 5 5 -3 10 -12 8 -12 10 -1 10
11 0 10 5 -4 20 -18 20 -18 21 0 14 13 -5 16 -4 11 4 -4 7 -3 12 2 12 4 0 8
18 7 40 -1 22 2 40 7 40 4 0 8 -5 8 -12 0 -6 3 -9 6 -6 3 4 1 16 -5 27 -10 18
-7 23 27 40 47 24 179 121 287 211 415 346 633 491 846 565 57 20 105 38 108
40 7 7 -194 3 -269 -5z"/>
<path d="M3280 3759 c-221 -56 -444 -189 -890 -529 -210 -160 -408 -295 -513
-349 -102 -53 -114 -56 -78 -20 17 17 35 28 40 24 5 -3 13 0 17 6 4 7 3 9 -2
6 -6 -3 -16 -2 -22 2 -10 6 -9 11 4 22 12 9 15 10 10 2 -4 -7 -2 -13 3 -13 22
0 11 52 -15 72 -20 16 -23 23 -12 29 9 6 9 9 1 9 -6 0 -15 -5 -18 -10 -4 -7
-12 -7 -24 0 -10 5 -22 6 -26 2 -4 -4 -3 3 4 15 11 21 10 22 -19 12 -17 -6
-27 -16 -23 -22 3 -5 2 -7 -4 -4 -5 3 -49 -11 -99 -31 -79 -32 -99 -36 -179
-36 -56 0 -99 4 -113 13 -13 7 -26 11 -28 8 -5 -4 12 -61 63 -222 47 -146 91
-184 237 -206 176 -26 379 57 670 274 141 106 159 124 151 145 -4 10 0 12 10
8 9 -3 14 -2 10 3 -3 5 -2 11 2 14 5 2 2 2 -6 0 -8 -2 -18 2 -23 9 -5 8 -6 0
-3 -19 3 -17 1 -35 -5 -38 -11 -7 -13 8 -10 70 1 22 6 46 12 53 7 8 7 16 -1
26 -10 12 -8 13 11 8 21 -5 22 -4 9 12 -11 13 -12 19 -2 29 10 9 11 8 6 -5 -5
-13 -2 -18 9 -18 14 0 20 13 19 46 0 6 7 11 16 10 9 0 16 6 16 14 0 39 330
294 515 397 254 143 529 182 678 97 44 -26 51 -20 28 25 -39 74 -252 104 -426
60z m-930 -865 c0 -8 -19 -13 -24 -6 -3 5 1 9 9 9 8 0 15 -2 15 -3z"/>
<path d="M3410 3531 c-47 -10 -109 -28 -138 -40 -64 -25 -152 -70 -152 -76 0
-3 30 7 68 21 232 89 445 100 581 30 30 -16 38 -12 23 10 -4 6 -38 23 -77 38
-92 37 -190 42 -305 17z"/>
<path d="M3548 3190 c-183 -31 -388 -140 -703 -375 -111 -82 -163 -116 -151
-97 3 6 2 13 -3 16 -6 4 -6 18 -1 37 5 18 5 40 -1 55 -5 14 -9 34 -9 44 0 10
-4 30 -10 45 l-10 26 -63 -48 c-155 -117 -392 -283 -474 -332 -99 -58 -259
-119 -363 -138 -76 -14 -100 -14 -160 -4 -38 7 -72 17 -76 22 -3 5 -10 9 -16
9 -37 0 172 -220 293 -307 46 -34 114 -75 151 -94 l66 -32 64 15 c175 44 330
136 673 397 110 84 235 178 277 210 47 34 75 61 72 70 -2 8 1 11 9 8 8 -3 20
-1 28 4 10 6 6 9 -16 10 -36 1 -82 17 -52 18 14 1 17 6 12 22 -4 12 -1 27 8
37 22 26 28 52 13 52 -30 0 -21 26 21 58 51 39 169 109 234 139 95 45 159 58
279 58 104 0 120 -3 168 -26 l52 -26 0 26 c0 57 -9 67 -78 90 -69 22 -145 26
-234 11z"/>
<path d="M1790 3040 c12 -8 12 -10 -5 -10 -16 0 -17 -2 -5 -10 9 -6 17 -5 22
3 8 14 1 27 -15 27 -7 0 -6 -4 3 -10z"/>
<path d="M3810 2953 c14 -3 32 -10 40 -17 33 -28 41 -29 28 -2 -9 22 -17 26
-52 25 -28 -1 -33 -3 -16 -6z"/>
<path d="M4220 2879 c-14 -25 -6 -65 15 -73 37 -14 75 36 56 73 -15 28 -57 28
-71 0z"/>
<path d="M3576 2811 c-94 -26 -201 -81 -328 -167 -92 -63 -271 -195 -333 -246
-227 -187 -495 -362 -645 -420 -33 -12 -60 -25 -60 -28 0 -13 180 -42 285 -47
184 -9 418 32 588 103 185 78 362 217 486 382 114 152 238 399 212 425 -19 19
-134 18 -205 -2z"/>
<path d="M3098 2743 c7 -3 16 -2 19 1 4 3 -2 6 -13 5 -11 0 -14 -3 -6 -6z"/>
<path d="M1206 1249 c1 -237 4 -432 6 -433 1 -2 40 -6 85 -9 l83 -5 2 277 3
278 145 -174 c79 -96 187 -218 240 -272 88 -92 98 -99 143 -106 27 -3 50 -5
52 -3 2 2 5 200 7 441 l3 437 -93 0 -93 0 2 -260 c1 -143 0 -263 -3 -265 -4
-4 -52 50 -184 205 -134 157 -175 204 -224 258 l-57 62 -60 0 -60 0 3 -431z"/>
<path d="M2170 1242 l0 -437 176 2 c195 3 242 13 336 66 71 39 151 131 178
204 59 158 20 363 -90 470 -101 99 -212 133 -442 133 l-158 0 0 -438z m405
239 c49 -22 90 -62 118 -116 18 -32 22 -56 21 -125 -1 -97 -17 -144 -67 -191
-57 -55 -103 -72 -204 -77 l-93 -4 0 272 0 273 92 -7 c53 -4 110 -15 133 -25z"/>
<path d="M3615 1668 c-135 -49 -216 -196 -173 -319 33 -98 83 -135 242 -184
105 -32 130 -46 146 -85 10 -24 10 -36 0 -60 -29 -70 -127 -80 -238 -25 -38
19 -75 42 -82 50 -11 13 -20 6 -61 -51 -27 -37 -49 -71 -49 -76 0 -16 123 -88
179 -104 72 -22 183 -21 247 0 67 22 128 75 161 140 37 73 37 176 -1 240 -36
62 -67 81 -207 126 -67 22 -128 45 -136 52 -23 18 -35 58 -28 90 15 66 119 75
222 18 31 -16 57 -29 58 -27 23 37 55 79 78 104 l30 32 -49 31 c-27 17 -71 37
-98 45 -57 17 -197 19 -241 3z"/>
<path d="M3057 1551 c3 -11 11 -22 19 -25 11 -4 12 -2 4 14 -14 27 -29 34 -23
11z"/>
<path d="M3045 1159 c-4 -187 -5 -343 -1 -346 3 -3 45 -6 93 -5 l88 1 3 345 2
346 -89 0 -88 0 -8 -341z"/>
</g>
</svg>
